<svg version="1.1" id="Layer_1" xmlns="http://www.w3.org/2000/svg" xmlns:xlink="http://www.w3.org/1999/xlink" x="0px" y="0px"
	 width="100%" viewBox="0 0 184 186" enable-background="new 0 0 184 186" xml:space="preserve">
<path fill="#010101" opacity="1.000000" stroke="none" 
	d="
M83.000000,187.000000 
	C55.333336,187.000000 28.166670,187.000000 1.000004,187.000000 
	C1.000002,125.000008 1.000002,63.000011 1.000001,1.000012 
	C62.333324,1.000008 123.666649,1.000008 184.999969,1.000004 
	C184.999985,62.999989 184.999985,124.999977 185.000000,186.999985 
	C151.166672,187.000000 117.333336,187.000000 83.000000,187.000000 
M87.696320,92.206924 
	C102.158745,77.743118 116.608192,63.266285 131.096146,48.828087 
	C133.567352,46.365368 135.471191,43.716274 132.202377,40.811432 
	C129.364410,38.289471 126.893883,39.819309 124.498611,42.251339 
	C115.282494,51.608883 105.898132,60.800453 96.609642,70.087059 
	C77.208641,89.484131 57.834423,108.908005 38.432274,128.303925 
	C36.193127,130.542358 35.762287,133.005707 37.898037,135.336319 
	C40.144436,137.787689 42.635166,137.210754 44.865314,135.026352 
	C45.935204,133.978394 46.989815,132.914810 48.048843,131.855789 
	C61.099941,118.804916 74.150581,105.753571 87.696320,92.206924 
M124.328506,115.826698 
	C129.854218,110.299309 135.390915,104.782837 140.900391,99.239288 
	C143.180801,96.944771 144.034714,94.236153 141.499222,91.797935 
	C138.945297,89.341980 136.381821,90.428612 134.118622,92.745712 
	C130.402481,96.550369 126.604630,100.275169 122.842842,104.035263 
	C111.671753,115.201263 100.404839,126.275208 89.462227,137.660828 
	C88.200478,138.973648 87.777832,142.571854 88.669495,144.145050 
	C90.185562,146.819901 93.157791,146.464905 95.585342,144.518967 
	C96.360260,143.897781 97.023293,143.135818 97.729225,142.429977 
	C106.430016,133.730209 115.129265,125.028893 124.328506,115.826698 
z"/>
<path fill="#F8F8F8" opacity="1.000000" stroke="none" 
	d="
M87.448822,92.454636 
	C74.150581,105.753571 61.099941,118.804916 48.048843,131.855789 
	C46.989815,132.914810 45.935204,133.978394 44.865314,135.026352 
	C42.635166,137.210754 40.144436,137.787689 37.898037,135.336319 
	C35.762287,133.005707 36.193127,130.542358 38.432274,128.303925 
	C57.834423,108.908005 77.208641,89.484131 96.609642,70.087059 
	C105.898132,60.800453 115.282494,51.608883 124.498611,42.251339 
	C126.893883,39.819309 129.364410,38.289471 132.202377,40.811432 
	C135.471191,43.716274 133.567352,46.365368 131.096146,48.828087 
	C116.608192,63.266285 102.158745,77.743118 87.448822,92.454636 
z"/>
<path fill="#F3F3F3" opacity="1.000000" stroke="none" 
	d="
M124.078712,116.077347 
	C115.129265,125.028893 106.430016,133.730209 97.729225,142.429977 
	C97.023293,143.135818 96.360260,143.897781 95.585342,144.518967 
	C93.157791,146.464905 90.185562,146.819901 88.669495,144.145050 
	C87.777832,142.571854 88.200478,138.973648 89.462227,137.660828 
	C100.404839,126.275208 111.671753,115.201263 122.842842,104.035263 
	C126.604630,100.275169 130.402481,96.550369 134.118622,92.745712 
	C136.381821,90.428612 138.945297,89.341980 141.499222,91.797935 
	C144.034714,94.236153 143.180801,96.944771 140.900391,99.239288 
	C135.390915,104.782837 129.854218,110.299309 124.078712,116.077347 
z"/>
</svg>