<svg version="1.1" id="Layer_1" xmlns="http://www.w3.org/2000/svg" xmlns:xlink="http://www.w3.org/1999/xlink" x="0px" y="0px"
	 width="100%" viewBox="0 0 508 516" enable-background="new 0 0 508 516" xml:space="preserve">
<path fill="#4928D7" opacity="1.000000" stroke="none" 
	d="
M235.000000,517.000000 
	C156.685669,517.000000 78.871330,517.000000 1.028497,517.000000 
	C1.028497,345.060974 1.028497,173.121964 1.028497,1.091469 
	C170.230972,1.091469 339.462006,1.091469 508.846527,1.091469 
	C508.846527,172.999893 508.846527,344.999939 508.846527,517.000000 
	C417.788666,517.000000 326.644348,517.000000 235.000000,517.000000 
M278.770142,346.046326 
	C278.763062,376.199463 278.755157,406.352631 278.751923,436.505768 
	C278.751801,437.671448 278.751923,438.840027 278.828552,440.002228 
	C279.036041,443.149963 281.086060,443.500031 283.392639,442.574249 
	C284.708191,442.046234 285.798370,440.831421 286.847595,439.783264 
	C316.665802,409.995361 346.477966,380.201385 376.228760,350.346252 
	C377.538940,349.031464 378.261810,347.131409 380.061920,345.283264 
	C380.670044,343.600128 381.807587,341.917694 381.809906,340.233734 
	C381.898987,274.770081 381.891022,209.306259 381.874512,143.842468 
	C381.872650,136.490860 380.137939,134.768723 372.832092,134.762070 
	C350.011383,134.741287 327.190704,134.751877 304.369995,134.751709 
	C261.893494,134.751404 219.416992,134.748657 176.940491,134.761353 
	C174.536163,134.762070 171.731598,134.044617 170.320312,137.509964 
	C168.973358,138.447083 167.448853,139.206253 166.305359,140.347275 
	C136.245300,170.342728 106.202744,200.355911 76.263412,230.471649 
	C74.800987,231.942688 74.301628,234.371140 73.353798,236.353760 
	C75.317505,236.925812 77.279289,237.988388 79.245201,237.996094 
	C107.222191,238.105865 135.199768,238.063309 163.177155,238.088928 
	C166.000854,238.091522 168.824356,238.297592 171.759933,239.287750 
	C171.807053,270.740112 171.853867,302.192444 171.901505,333.644806 
	C171.916550,343.584167 173.239105,344.930023 183.011124,344.946503 
	C214.961899,345.000427 246.912659,345.053192 278.917542,345.071289 
	C278.917542,345.071289 278.900452,345.133484 278.770142,346.046326 
z"/>
<path fill="#FFFFFF" opacity="1.000000" stroke="none" 
	d="
M170.959579,137.574356 
	C171.731598,134.044617 174.536163,134.762070 176.940491,134.761353 
	C219.416992,134.748657 261.893494,134.751404 304.369995,134.751709 
	C327.190704,134.751877 350.011383,134.741287 372.832092,134.762070 
	C380.137939,134.768723 381.872650,136.490860 381.874512,143.842468 
	C381.891022,209.306259 381.898987,274.770081 381.809906,340.233734 
	C381.807587,341.917694 380.670044,343.600128 379.205017,345.208435 
	C345.198883,345.133575 312.049652,345.133545 278.900452,345.133484 
	C278.900452,345.133484 278.917542,345.071289 278.854004,344.614014 
	C278.737518,312.067841 278.694336,279.978851 278.624603,247.889954 
	C278.608246,240.357986 276.399261,238.178741 268.744049,238.102829 
	C263.257538,238.048416 257.770050,238.103287 252.283035,238.088486 
	C225.850266,238.017197 199.417496,237.938812 172.852325,237.701706 
	C172.530807,237.333893 172.317581,237.156265 172.007355,236.543198 
	C171.907455,205.506851 171.899185,174.934860 171.815109,144.363052 
	C171.808884,142.099380 171.257523,139.837219 170.959579,137.574356 
z"/>
<path fill="#927FE6" opacity="1.000000" stroke="none" 
	d="
M172.984726,237.862946 
	C199.417496,237.938812 225.850266,238.017197 252.283035,238.088486 
	C257.770050,238.103287 263.257538,238.048416 268.744049,238.102829 
	C276.399261,238.178741 278.608246,240.357986 278.624603,247.889954 
	C278.694336,279.978851 278.737518,312.067841 278.826935,344.631592 
	C246.912659,345.053192 214.961899,345.000427 183.011124,344.946503 
	C173.239105,344.930023 171.916550,343.584167 171.901505,333.644806 
	C171.853867,302.192444 171.807053,270.740112 171.806366,238.730698 
	C171.852814,238.173645 172.058136,237.939255 172.292084,237.948151 
	C172.526031,237.957047 172.984726,237.862946 172.984726,237.862946 
z"/>
<path fill="#927FE6" opacity="1.000000" stroke="none" 
	d="
M170.639954,137.542160 
	C171.257523,139.837219 171.808884,142.099380 171.815109,144.363052 
	C171.899185,174.934860 171.907455,205.506851 171.955231,236.774994 
	C171.975952,237.471191 172.058136,237.939255 172.058136,237.939255 
	C172.058136,237.939255 171.852814,238.173645 171.750381,238.291443 
	C168.824356,238.297592 166.000854,238.091522 163.177155,238.088928 
	C135.199768,238.063309 107.222191,238.105865 79.245201,237.996094 
	C77.279289,237.988388 75.317505,236.925812 73.353806,236.353760 
	C74.301628,234.371140 74.800987,231.942688 76.263412,230.471649 
	C106.202744,200.355911 136.245300,170.342728 166.305359,140.347275 
	C167.448853,139.206253 168.973358,138.447083 170.639954,137.542160 
z"/>
<path fill="#927FE6" opacity="1.000000" stroke="none" 
	d="
M278.835297,345.589905 
	C312.049652,345.133545 345.198883,345.133575 378.803162,345.318787 
	C378.261810,347.131409 377.538940,349.031464 376.228760,350.346252 
	C346.477966,380.201385 316.665802,409.995361 286.847595,439.783264 
	C285.798370,440.831421 284.708191,442.046234 283.392639,442.574249 
	C281.086060,443.500031 279.036041,443.149963 278.828552,440.002228 
	C278.751923,438.840027 278.751801,437.671448 278.751923,436.505768 
	C278.755157,406.352631 278.763062,376.199463 278.835297,345.589905 
z"/>
<path fill="#F5F2FD" opacity="1.000000" stroke="none" 
	d="
M172.292084,237.948151 
	C172.058136,237.939255 171.975952,237.471191 172.028091,237.239380 
	C172.317581,237.156265 172.530807,237.333893 172.852325,237.701706 
	C172.984726,237.862946 172.526031,237.957047 172.292084,237.948151 
z"/>
</svg>